<svg width="239" height="239" viewBox="0 0 239 239" fill="none" xmlns="http://www.w3.org/2000/svg">
<style>
  path { fill: #000; }
  @media (prefers-color-scheme: dark) {
    path { fill: #fff; }
  }
</style>
<path d="M129.864 63.0738V120.682H151.98V35.171H129.864H129.611L87.2212 94.9146L44.2607 35.171H23V120.173H43.6786V62.9775L85.1829 120.173H89.1144L129.864 63.0738Z"/>
<path fill-rule="evenodd" clip-rule="evenodd" d="M182.319 119.741C203.101 119.741 216 131.418 216 145.501C216 162.593 201.668 171.139 182.319 171.139H131.008V204H110.656V171.065L43.9062 171.139V204H23V119.741H182.319ZM43.9062 133.826V157.056H91.1485C102.901 157.056 108.061 153.685 108.061 145.501C108.061 137.316 102.901 133.826 91.1485 133.826H43.9062ZM130.866 133.826V157.056H178.736C190.488 157.056 195.649 153.685 195.649 145.501C195.649 137.316 190.488 133.826 178.736 133.826H130.866Z"/>
</svg>
